<?xml version="1.0" encoding="utf-8"?>
<!-- Generator: Adobe Illustrator 22.0.1, SVG Export Plug-In . SVG Version: 6.00 Build 0)  -->
<svg version="1.1" id="tycho" xmlns="http://www.w3.org/2000/svg" xmlns:xlink="http://www.w3.org/1999/xlink" x="0px" y="0px"
	 viewBox="0 0 6883.4 1000" style="enable-background:new 0 0 6883.4 1000;" xml:space="preserve">
<style type="text/css">
	.st0{fill:#EC6701;}
	.st1{fill:#FFFFFF;}
</style>
<rect id="bg" x="3.2" class="st0" width="1000" height="1000"/>
<g id="symbol">
	<circle class="st1" cx="745.7" cy="738.1" r="67.5"/>
	<g>
		<polygon class="st1" points="716.9,198 228.7,198 228.7,298 409.1,298 409.1,798 532.6,798 532.6,298 716.9,298 		"/>
	</g>
</g>
<g id="text" fill="white">
	<g>
		<path d="M1785.3,110.4h-139.4v379.1h-93.8V110.4h-137.5V34.5h370.6V110.4z"/>
		<path d="M1933.4,361.7l62.5-210.3h96.9L1956.9,542l-7.5,17.8c-20.2,44.2-53.5,66.2-100,66.2c-13.1,0-26.5-2-40-5.9v-68.4l13.8,0.3
			c17.1,0,29.8-2.6,38.3-7.8c8.4-5.2,15-13.9,19.8-25.9l10.6-27.8l-118.4-339.1h97.2L1933.4,361.7z"/>
		<path d="M2265,422.9c16.7,0,30.2-4.6,40.6-13.8c10.4-9.2,15.8-21.4,16.2-36.6h84.7c-0.2,22.9-6.5,43.9-18.8,63
			c-12.3,19.1-29.1,33.9-50.5,44.4c-21.4,10.5-45,15.8-70.8,15.8c-48.3,0-86.5-15.4-114.4-46.1c-27.9-30.7-41.9-73.2-41.9-127.3
			v-5.9c0-52.1,13.9-93.6,41.6-124.7c27.7-31,65.7-46.6,114.1-46.6c42.3,0,76.2,12,101.7,36.1c25.5,24.1,38.5,56.1,38.9,96.1h-84.7
			c-0.4-17.6-5.8-31.9-16.2-42.9c-10.4-11-24.2-16.5-41.2-16.5c-21,0-36.9,7.7-47.7,23c-10.7,15.3-16.1,40.2-16.1,74.6v9.4
			c0,34.8,5.3,59.9,15.9,75.1C2227.2,415.3,2243.3,422.9,2265,422.9z"/>
		<path d="M2546.3,188.2c24-28.8,54.1-43.1,90.3-43.1c73.3,0,110.5,42.6,111.6,127.8v216.6h-90.3V275.4c0-19.4-4.2-33.7-12.5-43
			c-8.3-9.3-22.2-13.9-41.6-13.9c-26.5,0-45.6,10.2-57.5,30.6v240.3h-90.3V9.5h90.3V188.2z"/>
		<path d="M2802.2,317.3c0-33.5,6.5-63.4,19.4-89.7c12.9-26.2,31.5-46.6,55.8-60.9c24.3-14.4,52.4-21.6,84.5-21.6
			c45.6,0,82.9,14,111.7,41.9c28.9,27.9,44.9,65.8,48.3,113.8l0.6,23.1c0,51.9-14.5,93.5-43.4,124.8c-29,31.4-67.8,47-116.6,47
			s-87.7-15.6-116.7-46.9s-43.6-73.8-43.6-127.5V317.3z M2892.5,323.7c0,32.1,6,56.7,18.1,73.7c12.1,17,29.4,25.5,51.9,25.5
			c21.9,0,39-8.4,51.2-25.2c12.3-16.8,18.4-43.7,18.4-80.6c0-31.5-6.1-55.9-18.4-73.2c-12.3-17.3-29.6-26-51.9-26
			c-22.1,0-39.2,8.6-51.2,25.8C2898.5,261,2892.5,287.6,2892.5,323.7z"/>
		<path d="M3343.4,489.5v-455h159.4c55.2,0,97.1,10.6,125.6,31.7c28.5,21.1,42.8,52.1,42.8,93c0,22.3-5.7,41.9-17.2,58.9
			c-11.5,17-27.4,29.4-47.8,37.3c23.3,5.8,41.7,17.6,55.2,35.3c13.4,17.7,20.2,39.4,20.2,65c0,43.8-14,76.9-41.9,99.4
			c-27.9,22.5-67.7,34-119.4,34.4H3343.4z M3437.2,225.1h69.4c47.3-0.8,70.9-19.7,70.9-56.6c0-20.6-6-35.5-18-44.5
			c-12-9.1-30.9-13.6-56.7-13.6h-65.6V225.1z M3437.2,291.4v122.8h80.3c22.1,0,39.3-5.3,51.7-15.8c12.4-10.5,18.6-25,18.6-43.6
			c0-41.7-21.6-62.8-64.7-63.4H3437.2z"/>
		<path d="M3935.9,236c-12.3-1.7-23.1-2.5-32.5-2.5c-34.2,0-56.6,11.6-67.2,34.7v221.2h-90.3V151.4h85.3l2.5,40.3
			c18.1-31,43.2-46.6,75.3-46.6c10,0,19.4,1.4,28.1,4.1L3935.9,236z"/>
		<path d="M4165.9,489.5c-4.2-8.1-7.2-18.2-9.1-30.3c-21.9,24.4-50.3,36.6-85.3,36.6c-33.1,0-60.6-9.6-82.3-28.8
			c-21.8-19.2-32.7-43.3-32.7-72.5c0-35.8,13.3-63.3,39.8-82.5c26.6-19.2,64.9-28.9,115.2-29.1h41.6v-19.4c0-15.6-4-28.1-12-37.5
			c-8-9.4-20.7-14.1-38-14.1c-15.2,0-27.1,3.6-35.8,10.9c-8.6,7.3-13,17.3-13,30h-90.3c0-19.6,6-37.7,18.1-54.4
			c12.1-16.7,29.2-29.7,51.2-39.2c22.1-9.5,46.9-14.2,74.4-14.2c41.7,0,74.7,10.5,99.2,31.4c24.5,20.9,36.7,50.4,36.7,88.3v146.6
			c0.2,32.1,4.7,56.4,13.4,72.8v5.3H4165.9z M4091.3,426.7c13.3,0,25.6-3,36.9-8.9s19.6-13.9,25-23.9v-58.1h-33.8
			c-45.2,0-69.3,15.6-72.2,46.9l-0.3,5.3c0,11.2,4,20.5,11.9,27.8C4066.7,423,4077.5,426.7,4091.3,426.7z"/>
		<path d="M4401.3,188.2c24-28.8,54.1-43.1,90.3-43.1c73.3,0,110.5,42.6,111.6,127.8v216.6h-90.3V275.4c0-19.4-4.2-33.7-12.5-43
			c-8.3-9.3-22.2-13.9-41.6-13.9c-26.5,0-45.6,10.2-57.5,30.6v240.3h-90.3V9.5h90.3V188.2z"/>
		<path d="M4826.9,495.7c-49.6,0-90-15.2-121.1-45.6c-31.1-30.4-46.7-70.9-46.7-121.6v-8.8c0-34,6.6-64.3,19.7-91.1
			c13.1-26.8,31.7-47.4,55.8-61.9c24.1-14.5,51.5-21.7,82.3-21.7c46.2,0,82.7,14.6,109.2,43.8c26.6,29.2,39.8,70.5,39.8,124.1v36.9
			h-215.3c2.9,22.1,11.7,39.8,26.4,53.1c14.7,13.3,33.3,20,55.8,20c34.8,0,62-12.6,81.6-37.8l44.4,49.7
			c-13.5,19.2-31.9,34.1-55,44.8S4855,495.7,4826.9,495.7z M4816.6,217.9c-17.9,0-32.5,6.1-43.6,18.2
			c-11.1,12.1-18.3,29.5-21.4,52.1h125.6V281c-0.4-20.1-5.8-35.6-16.2-46.6C4850.5,223.4,4835.7,217.9,4816.6,217.9z"/>
		<path d="M5200.3,396c0-11-5.5-19.7-16.4-26.1c-10.9-6.4-28.5-12-52.7-17c-80.4-16.9-120.6-51-120.6-102.5c0-30,12.4-55,37.3-75.2
			c24.9-20.1,57.4-30.2,97.7-30.2c42.9,0,77.2,10.1,103,30.3c25.7,20.2,38.6,46.5,38.6,78.8h-90.3c0-12.9-4.2-23.6-12.5-32
			c-8.3-8.4-21.4-12.7-39.1-12.7c-15.2,0-27,3.4-35.3,10.3c-8.3,6.9-12.5,15.6-12.5,26.2c0,10,4.7,18.1,14.2,24.2
			c9.5,6.1,25.5,11.5,48,15.9c22.5,4.5,41.5,9.5,56.9,15.2c47.7,17.5,71.6,47.8,71.6,90.9c0,30.8-13.2,55.8-39.7,74.8
			c-26.5,19.1-60.6,28.6-102.5,28.6c-28.3,0-53.5-5.1-75.5-15.2c-22-10.1-39.2-24-51.7-41.6c-12.5-17.6-18.8-36.6-18.8-57h85.6
			c0.8,16,6.8,28.3,17.8,36.9c11,8.5,25.8,12.8,44.4,12.8c17.3,0,30.4-3.3,39.2-9.8C5195.9,415.3,5200.3,406.7,5200.3,396z"/>
		<path d="M5469.1,353.9l-32.5,32.5v103.1h-90.3V9.5h90.3v265.9l17.5-22.5l86.6-101.6h108.4l-122.2,140.9l132.8,197.2h-103.8
			L5469.1,353.9z"/>
		<path d="M5674.1,317.3c0-33.5,6.5-63.4,19.4-89.7c12.9-26.2,31.5-46.6,55.8-60.9c24.3-14.4,52.4-21.6,84.5-21.6
			c45.6,0,82.9,14,111.7,41.9c28.9,27.9,44.9,65.8,48.3,113.8l0.6,23.1c0,51.9-14.5,93.5-43.4,124.8c-29,31.4-67.8,47-116.6,47
			s-87.7-15.6-116.7-46.9s-43.6-73.8-43.6-127.5V317.3z M5764.4,323.7c0,32.1,6,56.7,18.1,73.7c12.1,17,29.4,25.5,51.9,25.5
			c21.9,0,39-8.4,51.2-25.2c12.3-16.8,18.4-43.7,18.4-80.6c0-31.5-6.1-55.9-18.4-73.2c-12.3-17.3-29.6-26-51.9-26
			c-22.1,0-39.2,8.6-51.2,25.8C5770.4,261,5764.4,287.6,5764.4,323.7z"/>
		<path d="M6145.3,489.5h-90.6V9.5h90.6V489.5z"/>
		<path d="M6415.6,489.5c-4.2-8.1-7.2-18.2-9.1-30.3c-21.9,24.4-50.3,36.6-85.3,36.6c-33.1,0-60.6-9.6-82.3-28.8
			c-21.8-19.2-32.7-43.3-32.7-72.5c0-35.8,13.3-63.3,39.8-82.5c26.6-19.2,64.9-28.9,115.2-29.1h41.6v-19.4c0-15.6-4-28.1-12-37.5
			c-8-9.4-20.7-14.1-38-14.1c-15.2,0-27.1,3.6-35.8,10.9c-8.6,7.3-13,17.3-13,30h-90.3c0-19.6,6-37.7,18.1-54.4
			c12.1-16.7,29.2-29.7,51.2-39.2c22.1-9.5,46.9-14.2,74.4-14.2c41.7,0,74.7,10.5,99.2,31.4c24.5,20.9,36.7,50.4,36.7,88.3v146.6
			c0.2,32.1,4.7,56.4,13.4,72.8v5.3H6415.6z M6340.9,426.7c13.3,0,25.6-3,36.9-8.9s19.6-13.9,25-23.9v-58.1h-33.8
			c-45.2,0-69.3,15.6-72.2,46.9l-0.3,5.3c0,11.2,4,20.5,11.9,27.8C6316.4,423,6327.2,426.7,6340.9,426.7z"/>
		<path d="M6645.9,151.4l2.8,39.1c24.2-30.2,56.6-45.3,97.2-45.3c35.8,0,62.5,10.5,80,31.6c17.5,21,26.5,52.5,26.9,94.4v218.4h-90.3
			V273.2c0-19.2-4.2-33.1-12.5-41.7c-8.3-8.6-22.2-13-41.6-13c-25.4,0-44.5,10.8-57.2,32.5v238.4h-90.3V151.4H6645.9z"/>
	</g>
	<g>
		<path d="M1603,929.5h-44.7v-92.9h-87.1v92.9h-44.7V712.7h44.7v87.9h87.1v-87.9h44.7V929.5z"/>
		<path d="M1713.4,932.5c-23.6,0-42.9-7.2-57.7-21.7c-14.8-14.5-22.3-33.8-22.3-57.9v-4.2c0-16.2,3.1-30.7,9.4-43.4
			c6.3-12.8,15.1-22.6,26.6-29.5c11.5-6.9,24.5-10.4,39.2-10.4c22,0,39.4,6.9,52,20.8c12.7,13.9,19,33.6,19,59.1V863h-102.6
			c1.4,10.5,5.6,19,12.6,25.3c7,6.4,15.9,9.5,26.6,9.5c16.6,0,29.5-6,38.9-18l21.1,23.7c-6.5,9.1-15.2,16.3-26.2,21.4
			S1726.8,932.5,1713.4,932.5z M1708.5,800.1c-8.5,0-15.5,2.9-20.8,8.7c-5.3,5.8-8.7,14.1-10.2,24.8h59.9v-3.4
			c-0.2-9.6-2.8-17-7.7-22.2C1724.7,802.7,1717.6,800.1,1708.5,800.1z"/>
		<path d="M1849.5,929.5h-43.2V700.8h43.2V929.5z"/>
		<path d="M1972.2,885c0-5.3-2.6-9.4-7.8-12.4c-5.2-3-13.6-5.7-25.1-8.1c-38.3-8-57.5-24.3-57.5-48.8c0-14.3,5.9-26.2,17.8-35.8
			c11.9-9.6,27.4-14.4,46.5-14.4c20.5,0,36.8,4.8,49.1,14.4c12.3,9.6,18.4,22.1,18.4,37.5h-43c0-6.2-2-11.2-6-15.3
			c-4-4-10.2-6-18.6-6c-7.2,0-12.9,1.6-16.8,4.9c-4,3.3-6,7.5-6,12.5c0,4.8,2.3,8.6,6.8,11.5c4.5,2.9,12.1,5.5,22.9,7.6
			c10.7,2.1,19.8,4.5,27.1,7.2c22.7,8.3,34.1,22.8,34.1,43.3c0,14.7-6.3,26.6-18.9,35.7c-12.6,9.1-28.9,13.6-48.8,13.6
			c-13.5,0-25.5-2.4-36-7.2c-10.5-4.8-18.7-11.4-24.6-19.8s-8.9-17.4-8.9-27.2h40.8c0.4,7.6,3.2,13.5,8.5,17.6
			c5.3,4.1,12.3,6.1,21.1,6.1c8.2,0,14.5-1.6,18.7-4.7C1970.1,894.2,1972.2,890.1,1972.2,885z"/>
		<path d="M2041.5,726.7c0-6.5,2.2-11.8,6.5-15.9c4.3-4.2,10.2-6.3,17.6-6.3c7.3,0,13.2,2.1,17.6,6.3c4.4,4.2,6.6,9.5,6.6,15.9
			c0,6.6-2.2,11.9-6.6,16.1c-4.4,4.2-10.3,6.3-17.5,6.3c-7.2,0-13.1-2.1-17.5-6.3C2043.7,738.6,2041.5,733.2,2041.5,726.7z
			 M2087.2,929.5H2044V768.4h43.2V929.5z"/>
		<path d="M2162.3,768.4l1.3,18.6c11.5-14.4,27-21.6,46.3-21.6c17.1,0,29.8,5,38.1,15s12.6,25,12.8,45v104.1h-43V826.5
			c0-9.1-2-15.8-6-19.9c-4-4.1-10.6-6.2-19.8-6.2c-12.1,0-21.2,5.2-27.3,15.5v113.6h-43V768.4H2162.3z"/>
		<path d="M2287.2,847.8c0-24.7,5.9-44.6,17.7-59.7c11.8-15.1,27.6-22.6,47.6-22.6c17.7,0,31.4,6.1,41.2,18.2l1.8-15.2h39v155.8
			c0,14.1-3.2,26.4-9.6,36.8c-6.4,10.4-15.4,18.4-27,23.8c-11.6,5.5-25.2,8.2-40.8,8.2c-11.8,0-23.3-2.4-34.6-7.1
			s-19.7-10.8-25.5-18.2l19.1-26.2c10.7,12,23.7,18,39,18c11.4,0,20.3-3.1,26.7-9.2c6.4-6.1,9.5-14.8,9.5-26v-8.6
			c-9.9,11.2-23,16.8-39.2,16.8c-19.4,0-35-7.6-47-22.7c-12-15.1-17.9-35.2-17.9-60.2V847.8z M2330.2,851c0,14.6,2.9,26.1,8.8,34.4
			c5.9,8.3,13.9,12.5,24.1,12.5c13.1,0,22.5-4.9,28.1-14.8v-67.9c-5.8-9.8-15-14.8-27.9-14.8c-10.3,0-18.4,4.2-24.3,12.7
			C2333.2,821.5,2330.2,834.2,2330.2,851z"/>
		<path d="M2612.8,850.4c0,25.8-5.5,45.9-16.5,60.4c-11,14.4-26.4,21.7-46.2,21.7c-17.5,0-31.4-6.7-41.8-20.1l-1.9,17.1h-38.7V700.8
			h43v82.1c9.9-11.6,23-17.4,39.2-17.4c19.7,0,35.1,7.2,46.2,21.7c11.2,14.4,16.8,34.8,16.8,61V850.4z M2569.7,847.3
			c0-16.3-2.6-28.2-7.7-35.7c-5.2-7.5-12.9-11.2-23.1-11.2c-13.7,0-23.1,5.6-28.3,16.8v63.6c5.3,11.3,14.8,17,28.6,17
			c13.9,0,23-6.9,27.4-20.6C2568.7,870.7,2569.7,860.7,2569.7,847.3z"/>
		<path d="M2632.6,847.5c0-16,3.1-30.2,9.2-42.7s15-22.2,26.6-29c11.6-6.9,25-10.3,40.3-10.3c21.7,0,39.5,6.7,53.2,20
			c13.8,13.3,21.4,31.4,23,54.2l0.3,11c0,24.7-6.9,44.6-20.7,59.5s-32.3,22.4-55.5,22.4s-41.8-7.4-55.6-22.3
			c-13.9-14.9-20.8-35.1-20.8-60.8V847.5z M2675.6,850.5c0,15.3,2.9,27,8.6,35.1c5.8,8.1,14,12.2,24.7,12.2c10.4,0,18.6-4,24.4-12
			c5.9-8,8.8-20.8,8.8-38.4c0-15-2.9-26.7-8.8-34.9c-5.9-8.3-14.1-12.4-24.7-12.4c-10.5,0-18.7,4.1-24.4,12.3
			C2678.5,820.6,2675.6,833.3,2675.6,850.5z"/>
		<path d="M2902.3,808.7c-5.9-0.8-11-1.2-15.5-1.2c-16.3,0-27,5.5-32,16.5v105.4h-43V768.4h40.7l1.2,19.2
			c8.6-14.8,20.6-22.2,35.9-22.2c4.8,0,9.2,0.6,13.4,1.9L2902.3,808.7z"/>
		<path d="M2913.9,847.8c0-24.7,5.9-44.6,17.7-59.7c11.8-15.1,27.6-22.6,47.6-22.6c17.7,0,31.4,6.1,41.2,18.2l1.8-15.2h39v155.8
			c0,14.1-3.2,26.4-9.6,36.8c-6.4,10.4-15.4,18.4-27,23.8c-11.6,5.5-25.2,8.2-40.8,8.2c-11.8,0-23.3-2.4-34.6-7.1
			s-19.7-10.8-25.5-18.2l19.1-26.2c10.7,12,23.7,18,39,18c11.4,0,20.3-3.1,26.7-9.2c6.4-6.1,9.5-14.8,9.5-26v-8.6
			c-9.9,11.2-23,16.8-39.2,16.8c-19.4,0-35-7.6-47-22.7c-12-15.1-17.9-35.2-17.9-60.2V847.8z M2956.9,851c0,14.6,2.9,26.1,8.8,34.4
			c5.9,8.3,13.9,12.5,24.1,12.5c13.1,0,22.5-4.9,28.1-14.8v-67.9c-5.8-9.8-15-14.8-27.9-14.8c-10.3,0-18.4,4.2-24.3,12.7
			C2959.9,821.5,2956.9,834.2,2956.9,851z"/>
		<path d="M3181.5,885c0-5.3-2.6-9.4-7.8-12.4c-5.2-3-13.6-5.7-25.1-8.1c-38.3-8-57.5-24.3-57.5-48.8c0-14.3,5.9-26.2,17.8-35.8
			c11.9-9.6,27.4-14.4,46.5-14.4c20.5,0,36.8,4.8,49.1,14.4c12.3,9.6,18.4,22.1,18.4,37.5h-43c0-6.2-2-11.2-6-15.3
			c-4-4-10.2-6-18.6-6c-7.2,0-12.9,1.6-16.8,4.9c-4,3.3-6,7.5-6,12.5c0,4.8,2.3,8.6,6.8,11.5c4.5,2.9,12.1,5.5,22.9,7.6
			c10.7,2.1,19.8,4.5,27.1,7.2c22.7,8.3,34.1,22.8,34.1,43.3c0,14.7-6.3,26.6-18.9,35.7c-12.6,9.1-28.9,13.6-48.8,13.6
			c-13.5,0-25.5-2.4-36-7.2c-10.5-4.8-18.7-11.4-24.6-19.8s-8.9-17.4-8.9-27.2h40.8c0.4,7.6,3.2,13.5,8.5,17.6
			c5.3,4.1,12.3,6.1,21.1,6.1c8.2,0,14.5-1.6,18.7-4.7C3179.4,894.2,3181.5,890.1,3181.5,885z"/>
		<path d="M3414.3,885c0-5.3-2.6-9.4-7.8-12.4c-5.2-3-13.6-5.7-25.1-8.1c-38.3-8-57.5-24.3-57.5-48.8c0-14.3,5.9-26.2,17.8-35.8
			c11.9-9.6,27.4-14.4,46.5-14.4c20.5,0,36.8,4.8,49.1,14.4c12.3,9.6,18.4,22.1,18.4,37.5h-43c0-6.2-2-11.2-6-15.3
			c-4-4-10.2-6-18.6-6c-7.2,0-12.9,1.6-16.8,4.9c-4,3.3-6,7.5-6,12.5c0,4.8,2.3,8.6,6.8,11.5c4.5,2.9,12.1,5.5,22.9,7.6
			c10.7,2.1,19.8,4.5,27.1,7.2c22.7,8.3,34.1,22.8,34.1,43.3c0,14.7-6.3,26.6-18.9,35.7c-12.6,9.1-28.9,13.6-48.8,13.6
			c-13.5,0-25.5-2.4-36-7.2c-10.5-4.8-18.7-11.4-24.6-19.8s-8.9-17.4-8.9-27.2h40.8c0.4,7.6,3.2,13.5,8.5,17.6
			c5.3,4.1,12.3,6.1,21.1,6.1c8.2,0,14.5-1.6,18.7-4.7C3412.2,894.2,3414.3,890.1,3414.3,885z"/>
		<path d="M3535.3,728.8v39.6h27.6V800h-27.6v80.4c0,6,1.1,10.2,3.4,12.8c2.3,2.6,6.7,3.9,13.1,3.9c4.8,0,9-0.3,12.7-1v32.6
			c-8.4,2.6-17.1,3.9-26.1,3.9c-30.2,0-45.6-15.2-46.2-45.7V800h-23.5v-31.6h23.5v-39.6H3535.3z"/>
		<path d="M3680.2,929.5c-2-3.9-3.4-8.7-4.3-14.4c-10.4,11.6-24,17.4-40.7,17.4c-15.8,0-28.9-4.6-39.2-13.7
			c-10.4-9.1-15.6-20.6-15.6-34.6c0-17.1,6.3-30.2,19-39.3c12.7-9.1,31-13.8,54.9-13.8h19.8v-9.2c0-7.4-1.9-13.4-5.7-17.9
			c-3.8-4.5-9.9-6.7-18.1-6.7c-7.2,0-12.9,1.7-17.1,5.2s-6.2,8.2-6.2,14.3h-43c0-9.3,2.9-18,8.6-25.9c5.8-7.9,13.9-14.2,24.4-18.7
			s22.3-6.8,35.4-6.8c19.9,0,35.6,5,47.3,15c11.7,10,17.5,24,17.5,42.1v69.8c0.1,15.3,2.2,26.9,6.4,34.7v2.5H3680.2z M3644.7,899.6
			c6.4,0,12.2-1.4,17.6-4.2c5.4-2.8,9.3-6.6,11.9-11.4v-27.7h-16.1c-21.5,0-33,7.4-34.4,22.3l-0.2,2.5c0,5.4,1.9,9.8,5.7,13.3
			C3632.9,897.9,3638.1,899.6,3644.7,899.6z"/>
		<path d="M3743.7,847.8c0-25.1,5.6-45.1,16.9-60c11.3-14.9,26.7-22.3,46.2-22.3c15.7,0,28.6,5.9,38.9,17.6v-82.2h43.2v228.8H3850
			l-2.1-17.1c-10.7,13.4-24.5,20.1-41.4,20.1c-19,0-34.2-7.5-45.6-22.4C3749.4,895.2,3743.7,874.4,3743.7,847.8z M3786.7,851
			c0,15.1,2.6,26.7,7.9,34.8c5.3,8.1,12.9,12.1,22.9,12.1c13.3,0,22.7-5.6,28.1-16.9v-63.7c-5.4-11.2-14.6-16.9-27.9-16.9
			C3797.1,800.4,3786.7,817.3,3786.7,851z"/>
		<path d="M4009.5,885c0-5.3-2.6-9.4-7.8-12.4c-5.2-3-13.6-5.7-25.1-8.1c-38.3-8-57.5-24.3-57.5-48.8c0-14.3,5.9-26.2,17.8-35.8
			c11.9-9.6,27.4-14.4,46.5-14.4c20.5,0,36.8,4.8,49.1,14.4c12.3,9.6,18.4,22.1,18.4,37.5h-43c0-6.2-2-11.2-6-15.3
			c-4-4-10.2-6-18.6-6c-7.2,0-12.9,1.6-16.8,4.9c-4,3.3-6,7.5-6,12.5c0,4.8,2.3,8.6,6.8,11.5c4.5,2.9,12.1,5.5,22.9,7.6
			c10.7,2.1,19.8,4.5,27.1,7.2c22.7,8.3,34.1,22.8,34.1,43.3c0,14.7-6.3,26.6-18.9,35.7c-12.6,9.1-28.9,13.6-48.8,13.6
			c-13.5,0-25.5-2.4-36-7.2c-10.5-4.8-18.7-11.4-24.6-19.8s-8.9-17.4-8.9-27.2h40.8c0.4,7.6,3.2,13.5,8.5,17.6
			c5.3,4.1,12.3,6.1,21.1,6.1c8.2,0,14.5-1.6,18.7-4.7C4007.4,894.2,4009.5,890.1,4009.5,885z"/>
		<path d="M4242.3,885c0-5.3-2.6-9.4-7.8-12.4c-5.2-3-13.6-5.7-25.1-8.1c-38.3-8-57.5-24.3-57.5-48.8c0-14.3,5.9-26.2,17.8-35.8
			c11.9-9.6,27.4-14.4,46.5-14.4c20.5,0,36.8,4.8,49.1,14.4c12.3,9.6,18.4,22.1,18.4,37.5h-43c0-6.2-2-11.2-6-15.3
			c-4-4-10.2-6-18.6-6c-7.2,0-12.9,1.6-16.8,4.9c-4,3.3-6,7.5-6,12.5c0,4.8,2.3,8.6,6.8,11.5c4.5,2.9,12.1,5.5,22.9,7.6
			c10.7,2.1,19.8,4.5,27.1,7.2c22.7,8.3,34.1,22.8,34.1,43.3c0,14.7-6.3,26.6-18.9,35.7c-12.6,9.1-28.9,13.6-48.8,13.6
			c-13.5,0-25.5-2.4-36-7.2c-10.5-4.8-18.7-11.4-24.6-19.8s-8.9-17.4-8.9-27.2h40.8c0.4,7.6,3.2,13.5,8.5,17.6
			c5.3,4.1,12.3,6.1,21.1,6.1c8.2,0,14.5-1.6,18.7-4.7C4240.2,894.2,4242.3,890.1,4242.3,885z"/>
		<path d="M4370.4,864.9l-15.5,15.5v49.1h-43V700.8h43v126.7l8.3-10.7l41.2-48.4h51.7l-58.2,67.2l63.3,94h-49.4L4370.4,864.9z"/>
		<path d="M4468.1,847.5c0-16,3.1-30.2,9.2-42.7s15-22.2,26.6-29c11.6-6.9,25-10.3,40.3-10.3c21.7,0,39.5,6.7,53.2,20
			c13.8,13.3,21.4,31.4,23,54.2l0.3,11c0,24.7-6.9,44.6-20.7,59.5s-32.3,22.4-55.5,22.4s-41.8-7.4-55.6-22.3
			c-13.9-14.9-20.8-35.1-20.8-60.8V847.5z M4511.1,850.5c0,15.3,2.9,27,8.6,35.1c5.8,8.1,14,12.2,24.7,12.2c10.4,0,18.6-4,24.4-12
			c5.9-8,8.8-20.8,8.8-38.4c0-15-2.9-26.7-8.8-34.9c-5.9-8.3-14.1-12.4-24.7-12.4c-10.5,0-18.7,4.1-24.4,12.3
			C4514,820.6,4511.1,833.3,4511.1,850.5z"/>
		<path d="M4692.6,929.5h-43.2V700.8h43.2V929.5z"/>
		<path d="M4721.4,847.5c0-16,3.1-30.2,9.2-42.7s15-22.2,26.6-29c11.6-6.9,25-10.3,40.3-10.3c21.7,0,39.5,6.7,53.2,20
			c13.8,13.3,21.4,31.4,23,54.2l0.3,11c0,24.7-6.9,44.6-20.7,59.5s-32.3,22.4-55.5,22.4s-41.8-7.4-55.6-22.3
			c-13.9-14.9-20.8-35.1-20.8-60.8V847.5z M4764.4,850.5c0,15.3,2.9,27,8.6,35.1c5.8,8.1,14,12.2,24.7,12.2c10.4,0,18.6-4,24.4-12
			c5.9-8,8.8-20.8,8.8-38.4c0-15-2.9-26.7-8.8-34.9c-5.9-8.3-14.1-12.4-24.7-12.4c-10.5,0-18.7,4.1-24.4,12.3
			C4767.3,820.6,4764.4,833.3,4764.4,850.5z"/>
		<path d="M4991.1,808.7c-5.9-0.8-11-1.2-15.5-1.2c-16.3,0-27,5.5-32,16.5v105.4h-43V768.4h40.7l1.2,19.2
			c8.6-14.8,20.6-22.2,35.9-22.2c4.8,0,9.2,0.6,13.4,1.9L4991.1,808.7z"/>
	</g>
</g>
</svg>
